<?xml version="1.0" encoding="UTF-8" standalone="no"?>
<!DOCTYPE svg PUBLIC "-//W3C//DTD SVG 1.1//EN"
 "http://www.w3.org/Graphics/SVG/1.1/DTD/svg11.dtd">
<!-- Generated by graphviz version 2.38.0 (20140413.2041)
 -->
<!-- Title: controllers_diagram Pages: 1 -->
<svg width="552pt" height="336pt"
 viewBox="0.00 0.00 551.85 335.60" xmlns="http://www.w3.org/2000/svg" xmlns:xlink="http://www.w3.org/1999/xlink">
<g id="graph0" class="graph" transform="scale(1 1) rotate(0) translate(183.854 151.444)">
<title>controllers_diagram</title>
<polygon fill="none" stroke="none" points="-183.854,184.16 -183.854,-151.444 368,-151.444 368,184.16 -183.854,184.16"/>
<!-- _diagram_info -->
<g id="node1" class="node"><title>_diagram_info</title>
<text text-anchor="start" x="158" y="116.4" font-family="Times,serif" font-size="13.00">Controllers diagram</text>
<text text-anchor="start" x="158" y="130.4" font-family="Times,serif" font-size="13.00">Date: Mar 28 2018 &#45; 00:23</text>
<text text-anchor="start" x="158" y="144.4" font-family="Times,serif" font-size="13.00">Migration version: 20180325191213</text>
<text text-anchor="start" x="158" y="158.4" font-family="Times,serif" font-size="13.00">Generated by RailRoady 1.5.3</text>
<text text-anchor="start" x="158" y="172.4" font-family="Times,serif" font-size="13.00">http://railroady.prestonlee.com</text>
</g>
<!-- GirlFriendsController -->
<g id="node2" class="node"><title>GirlFriendsController</title>
<path fill="none" stroke="black" d="M-167.854,90.3176C-167.854,90.3176 -57.8543,90.3176 -57.8543,90.3176 -51.8543,90.3176 -45.8543,84.3176 -45.8543,78.3176 -45.8543,78.3176 -45.8543,-110.682 -45.8543,-110.682 -45.8543,-116.682 -51.8543,-122.682 -57.8543,-122.682 -57.8543,-122.682 -167.854,-122.682 -167.854,-122.682 -173.854,-122.682 -179.854,-116.682 -179.854,-110.682 -179.854,-110.682 -179.854,78.3176 -179.854,78.3176 -179.854,84.3176 -173.854,90.3176 -167.854,90.3176"/>
<text text-anchor="middle" x="-112.854" y="-107.482" font-family="Times,serif" font-size="14.00">GirlFriendsController</text>
<polyline fill="none" stroke="black" points="-179.854,-99.6824 -45.8543,-99.6824 "/>
<text text-anchor="start" x="-171.854" y="-84.4824" font-family="Times,serif" font-size="14.00">create</text>
<text text-anchor="start" x="-171.854" y="-69.4824" font-family="Times,serif" font-size="14.00">destroy</text>
<text text-anchor="start" x="-171.854" y="-54.4824" font-family="Times,serif" font-size="14.00">edit</text>
<text text-anchor="start" x="-171.854" y="-39.4824" font-family="Times,serif" font-size="14.00">new</text>
<text text-anchor="start" x="-171.854" y="-24.4824" font-family="Times,serif" font-size="14.00">show</text>
<text text-anchor="start" x="-171.854" y="-9.48241" font-family="Times,serif" font-size="14.00">update</text>
<polyline fill="none" stroke="black" points="-179.854,-1.68241 -45.8543,-1.68241 "/>
<polyline fill="none" stroke="black" points="-179.854,22.3176 -45.8543,22.3176 "/>
<text text-anchor="start" x="-171.854" y="37.5176" font-family="Times,serif" font-size="14.00">_layout</text>
<text text-anchor="start" x="-171.854" y="52.5176" font-family="Times,serif" font-size="14.00">find_boy</text>
<text text-anchor="start" x="-171.854" y="67.5176" font-family="Times,serif" font-size="14.00">find_girl_friend</text>
<text text-anchor="start" x="-171.854" y="82.5176" font-family="Times,serif" font-size="14.00">girl_friend_params</text>
</g>
<!-- BoysController -->
<g id="node3" class="node"><title>BoysController</title>
<path fill="none" stroke="black" d="M88.6591,66.0564C88.6591,66.0564 164.659,66.0564 164.659,66.0564 170.659,66.0564 176.659,60.0564 176.659,54.0564 176.659,54.0564 176.659,-134.944 176.659,-134.944 176.659,-140.944 170.659,-146.944 164.659,-146.944 164.659,-146.944 88.6591,-146.944 88.6591,-146.944 82.6591,-146.944 76.6591,-140.944 76.6591,-134.944 76.6591,-134.944 76.6591,54.0564 76.6591,54.0564 76.6591,60.0564 82.6591,66.0564 88.6591,66.0564"/>
<text text-anchor="middle" x="126.659" y="-131.744" font-family="Times,serif" font-size="14.00">BoysController</text>
<polyline fill="none" stroke="black" points="76.6591,-123.944 176.659,-123.944 "/>
<text text-anchor="start" x="84.6591" y="-108.744" font-family="Times,serif" font-size="14.00">create</text>
<text text-anchor="start" x="84.6591" y="-93.7436" font-family="Times,serif" font-size="14.00">destroy</text>
<text text-anchor="start" x="84.6591" y="-78.7436" font-family="Times,serif" font-size="14.00">edit</text>
<text text-anchor="start" x="84.6591" y="-63.7436" font-family="Times,serif" font-size="14.00">index</text>
<text text-anchor="start" x="84.6591" y="-48.7436" font-family="Times,serif" font-size="14.00">new</text>
<text text-anchor="start" x="84.6591" y="-33.7436" font-family="Times,serif" font-size="14.00">show</text>
<text text-anchor="start" x="84.6591" y="-18.7436" font-family="Times,serif" font-size="14.00">update</text>
<polyline fill="none" stroke="black" points="76.6591,-10.9436 176.659,-10.9436 "/>
<polyline fill="none" stroke="black" points="76.6591,13.0564 176.659,13.0564 "/>
<text text-anchor="start" x="84.6591" y="28.2564" font-family="Times,serif" font-size="14.00">_layout</text>
<text text-anchor="start" x="84.6591" y="43.2564" font-family="Times,serif" font-size="14.00">boy_params</text>
<text text-anchor="start" x="84.6591" y="58.2564" font-family="Times,serif" font-size="14.00">find_boy</text>
</g>
<!-- ApplicationController -->
<g id="node4" class="node"><title>ApplicationController</title>
<path fill="none" stroke="black" d="M-21.1115,179.66C-21.1115,179.66 90.8885,179.66 90.8885,179.66 96.8885,179.66 102.889,173.66 102.889,167.66 102.889,167.66 102.889,97.6604 102.889,97.6604 102.889,91.6604 96.8885,85.6604 90.8885,85.6604 90.8885,85.6604 -21.1115,85.6604 -21.1115,85.6604 -27.1115,85.6604 -33.1115,91.6604 -33.1115,97.6604 -33.1115,97.6604 -33.1115,167.66 -33.1115,167.66 -33.1115,173.66 -27.1115,179.66 -21.1115,179.66"/>
<text text-anchor="middle" x="34.8885" y="100.86" font-family="Times,serif" font-size="14.00">ApplicationController</text>
<polyline fill="none" stroke="black" points="-33.1115,108.66 102.889,108.66 "/>
<polyline fill="none" stroke="black" points="-33.1115,132.66 102.889,132.66 "/>
<polyline fill="none" stroke="black" points="-33.1115,156.66 102.889,156.66 "/>
<text text-anchor="start" x="-25.1115" y="171.86" font-family="Times,serif" font-size="14.00">_layout</text>
</g>
<!-- ApplicationController&#45;&gt;GirlFriendsController -->
<g id="edge1" class="edge"><title>ApplicationController&#45;&gt;GirlFriendsController</title>
<path fill="none" stroke="black" d="M-11.8582,85.5656C-22.5947,74.7492 -34.2189,63.0384 -45.6298,51.5426"/>
</g>
<!-- ApplicationController&#45;&gt;BoysController -->
<g id="edge2" class="edge"><title>ApplicationController&#45;&gt;BoysController</title>
<path fill="none" stroke="black" d="M59.9652,85.3589C65.166,75.5488 70.8193,64.8852 76.5614,54.0542"/>
</g>
</g>
</svg>
