<?xml version="1.0" encoding="UTF-8" standalone="no"?>
<!DOCTYPE svg PUBLIC "-//W3C//DTD SVG 1.1//EN"
 "http://www.w3.org/Graphics/SVG/1.1/DTD/svg11.dtd">
<!-- Generated by graphviz version 2.38.0 (20140413.2041)
 -->
<!-- Title: models_diagram Pages: 1 -->
<svg width="394pt" height="230pt"
 viewBox="0.00 0.00 394.34 230.00" xmlns="http://www.w3.org/2000/svg" xmlns:xlink="http://www.w3.org/1999/xlink">
<g id="graph0" class="graph" transform="scale(1 1) rotate(0) translate(4 226)">
<title>models_diagram</title>
<polygon fill="none" stroke="none" points="-4,4 -4,-226 390.343,-226 390.343,4 -4,4"/>
<!-- _diagram_info -->
<g id="node1" class="node"><title>_diagram_info</title>
<text text-anchor="start" x="8" y="-207.6" font-family="Times,serif" font-size="13.00">Models diagram</text>
<text text-anchor="start" x="8" y="-193.6" font-family="Times,serif" font-size="13.00">Date: Mar 28 2018 &#45; 00:23</text>
<text text-anchor="start" x="8" y="-179.6" font-family="Times,serif" font-size="13.00">Migration version: 20180325191213</text>
<text text-anchor="start" x="8" y="-165.6" font-family="Times,serif" font-size="13.00">Generated by RailRoady 1.5.3</text>
<text text-anchor="start" x="8" y="-151.6" font-family="Times,serif" font-size="13.00">http://railroady.prestonlee.com</text>
</g>
<!-- Boy -->
<g id="node2" class="node"><title>Boy</title>
<ellipse fill="none" stroke="black" cx="281" cy="-90" rx="27" ry="18"/>
<text text-anchor="middle" x="281" y="-86.3" font-family="Times,serif" font-size="14.00">Boy</text>
</g>
<!-- GirlFriend -->
<g id="node3" class="node"><title>GirlFriend</title>
<ellipse fill="none" stroke="black" cx="308" cy="-18" rx="48.1917" ry="18"/>
<text text-anchor="middle" x="308" y="-14.3" font-family="Times,serif" font-size="14.00">GirlFriend</text>
</g>
<!-- Boy&#45;&gt;GirlFriend -->
<g id="edge1" class="edge"><title>Boy&#45;&gt;GirlFriend</title>
<path fill="none" stroke="#d1136f" d="M290.343,-64.7779C292.747,-58.544 295.347,-51.8046 297.793,-45.4634"/>
<ellipse fill="none" stroke="#d1136f" cx="288.838" cy="-68.679" rx="4.00001" ry="4.00001"/>
<polygon fill="#d1136f" stroke="#d1136f" points="297.861,-45.2862 305.658,-37.5757 299.66,-40.6212 301.46,-35.9562 301.46,-35.9562 301.46,-35.9562 299.66,-40.6212 297.261,-34.3368 297.861,-45.2862 297.861,-45.2862"/>
</g>
<!-- ApplicationRecord -->
<g id="node4" class="node"><title>ApplicationRecord</title>
<ellipse fill="none" stroke="black" cx="309" cy="-183" rx="77.1866" ry="18"/>
<text text-anchor="middle" x="309" y="-179.3" font-family="Times,serif" font-size="14.00">ApplicationRecord</text>
</g>
<!-- ApplicationRecord&#45;&gt;Boy -->
<g id="edge2" class="edge"><title>ApplicationRecord&#45;&gt;Boy</title>
<path fill="none" stroke="black" d="M303.733,-164.884C298.696,-148.511 291.146,-123.975 286.148,-107.732"/>
</g>
<!-- ApplicationRecord&#45;&gt;GirlFriend -->
<g id="edge3" class="edge"><title>ApplicationRecord&#45;&gt;GirlFriend</title>
<path fill="none" stroke="black" d="M311.912,-164.842C315.204,-143.192 319.767,-104.818 317,-72 315.981,-59.9098 313.676,-46.4315 311.654,-36.0925"/>
</g>
</g>
</svg>
