<?xml version="1.0" encoding="UTF-8" standalone="no"?>
<!DOCTYPE svg PUBLIC "-//W3C//DTD SVG 1.1//EN"
 "http://www.w3.org/Graphics/SVG/1.1/DTD/svg11.dtd">
<!-- Generated by graphviz version 2.38.0 (20140413.2041)
 -->
<!-- Title: models_diagram Pages: 1 -->
<svg width="394pt" height="417pt"
 viewBox="0.00 0.00 394.34 417.00" xmlns="http://www.w3.org/2000/svg" xmlns:xlink="http://www.w3.org/1999/xlink">
<g id="graph0" class="graph" transform="scale(1 1) rotate(0) translate(4 413)">
<title>models_diagram</title>
<polygon fill="none" stroke="none" points="-4,4 -4,-413 390.343,-413 390.343,4 -4,4"/>
<!-- _diagram_info -->
<g id="node1" class="node"><title>_diagram_info</title>
<text text-anchor="start" x="8" y="-394.6" font-family="Times,serif" font-size="13.00">Models diagram</text>
<text text-anchor="start" x="8" y="-380.6" font-family="Times,serif" font-size="13.00">Date: Mar 28 2018 &#45; 00:23</text>
<text text-anchor="start" x="8" y="-366.6" font-family="Times,serif" font-size="13.00">Migration version: 20180325191213</text>
<text text-anchor="start" x="8" y="-352.6" font-family="Times,serif" font-size="13.00">Generated by RailRoady 1.5.3</text>
<text text-anchor="start" x="8" y="-338.6" font-family="Times,serif" font-size="13.00">http://railroady.prestonlee.com</text>
</g>
<!-- Boy -->
<g id="node2" class="node"><title>Boy</title>
<path fill="none" stroke="black" d="M208.5,-173.5C208.5,-173.5 315.5,-173.5 315.5,-173.5 321.5,-173.5 327.5,-179.5 327.5,-185.5 327.5,-185.5 327.5,-282.5 327.5,-282.5 327.5,-288.5 321.5,-294.5 315.5,-294.5 315.5,-294.5 208.5,-294.5 208.5,-294.5 202.5,-294.5 196.5,-288.5 196.5,-282.5 196.5,-282.5 196.5,-185.5 196.5,-185.5 196.5,-179.5 202.5,-173.5 208.5,-173.5"/>
<text text-anchor="middle" x="262" y="-279.3" font-family="Times,serif" font-size="14.00">Boy</text>
<polyline fill="none" stroke="black" points="196.5,-271.5 327.5,-271.5 "/>
<text text-anchor="start" x="204.5" y="-256.3" font-family="Times,serif" font-size="14.00">id :INTEGER</text>
<text text-anchor="start" x="204.5" y="-241.3" font-family="Times,serif" font-size="14.00">first_name :varchar</text>
<text text-anchor="start" x="204.5" y="-226.3" font-family="Times,serif" font-size="14.00">last_name :varchar</text>
<text text-anchor="start" x="204.5" y="-211.3" font-family="Times,serif" font-size="14.00">email :varchar</text>
<text text-anchor="start" x="204.5" y="-196.3" font-family="Times,serif" font-size="14.00">created_at :datetime</text>
<text text-anchor="start" x="204.5" y="-181.3" font-family="Times,serif" font-size="14.00">updated_at :datetime</text>
</g>
<!-- GirlFriend -->
<g id="node3" class="node"><title>GirlFriend</title>
<path fill="none" stroke="black" d="M255.5,-0.5C255.5,-0.5 362.5,-0.5 362.5,-0.5 368.5,-0.5 374.5,-6.5 374.5,-12.5 374.5,-12.5 374.5,-124.5 374.5,-124.5 374.5,-130.5 368.5,-136.5 362.5,-136.5 362.5,-136.5 255.5,-136.5 255.5,-136.5 249.5,-136.5 243.5,-130.5 243.5,-124.5 243.5,-124.5 243.5,-12.5 243.5,-12.5 243.5,-6.5 249.5,-0.5 255.5,-0.5"/>
<text text-anchor="middle" x="309" y="-121.3" font-family="Times,serif" font-size="14.00">GirlFriend</text>
<polyline fill="none" stroke="black" points="243.5,-113.5 374.5,-113.5 "/>
<text text-anchor="start" x="251.5" y="-98.3" font-family="Times,serif" font-size="14.00">id :INTEGER</text>
<text text-anchor="start" x="251.5" y="-83.3" font-family="Times,serif" font-size="14.00">boy_id :integer</text>
<text text-anchor="start" x="251.5" y="-68.3" font-family="Times,serif" font-size="14.00">first_name :varchar</text>
<text text-anchor="start" x="251.5" y="-53.3" font-family="Times,serif" font-size="14.00">last_name :varchar</text>
<text text-anchor="start" x="251.5" y="-38.3" font-family="Times,serif" font-size="14.00">email :varchar</text>
<text text-anchor="start" x="251.5" y="-23.3" font-family="Times,serif" font-size="14.00">created_at :datetime</text>
<text text-anchor="start" x="251.5" y="-8.3" font-family="Times,serif" font-size="14.00">updated_at :datetime</text>
</g>
<!-- Boy&#45;&gt;GirlFriend -->
<g id="edge1" class="edge"><title>Boy&#45;&gt;GirlFriend</title>
<path fill="none" stroke="#32a0bd" d="M281.493,-165.189C283.274,-158.993 285.087,-152.688 286.888,-146.421"/>
<ellipse fill="none" stroke="#32a0bd" cx="280.339" cy="-169.203" rx="4.00001" ry="4.00001"/>
<polygon fill="#32a0bd" stroke="#32a0bd" points="286.941,-146.235 294.029,-137.868 288.323,-141.43 289.704,-136.625 289.704,-136.625 289.704,-136.625 288.323,-141.43 285.379,-135.381 286.941,-146.235 286.941,-146.235"/>
</g>
<!-- ApplicationRecord -->
<g id="node4" class="node"><title>ApplicationRecord</title>
<ellipse fill="none" stroke="black" cx="309" cy="-370" rx="77.1866" ry="18"/>
<text text-anchor="middle" x="309" y="-366.3" font-family="Times,serif" font-size="14.00">ApplicationRecord</text>
</g>
<!-- ApplicationRecord&#45;&gt;Boy -->
<g id="edge2" class="edge"><title>ApplicationRecord&#45;&gt;Boy</title>
<path fill="none" stroke="black" d="M303.047,-352.029C297.934,-337.451 290.246,-315.531 282.901,-294.59"/>
</g>
<!-- ApplicationRecord&#45;&gt;GirlFriend -->
<g id="edge3" class="edge"><title>ApplicationRecord&#45;&gt;GirlFriend</title>
<path fill="none" stroke="black" d="M317.52,-351.87C324.318,-337.19 333.294,-315.268 337,-295 346.754,-241.662 344.142,-226.75 337,-173 335.419,-161.098 332.856,-148.623 329.908,-136.62"/>
</g>
</g>
</svg>
